<svg width="37.000000" height="37.000000" viewBox="0 0 37 37" fill="none" xmlns="http://www.w3.org/2000/svg" xmlns:xlink="http://www.w3.org/1999/xlink">
	<desc>
			Created with Pixso.
	</desc>
	<defs>
		<clipPath id="clip6_24">
			<rect id="home 1" width="37.000000" height="37.000000" fill="white" fill-opacity="0"/>
		</clipPath>
	</defs>
	<rect id="home 1" width="37.000000" height="37.000000" fill="#FFFFFF" fill-opacity="0"/>
	<g clip-path="url(#clip6_24)">
		<path id="Vector" d="M27.1 10.25C26.97 10.12 26.78 10.04 26.59 10.04C26.4 10.04 26.21 10.12 26.08 10.25C25.94 10.39 25.87 10.57 25.87 10.76C25.87 10.95 25.94 11.14 26.08 11.27C26.21 11.41 26.4 11.49 26.59 11.49C26.78 11.49 26.97 11.41 27.1 11.27C27.23 11.14 27.31 10.95 27.31 10.76C27.31 10.57 27.23 10.39 27.1 10.25Z" fill="#95E1D3" fill-opacity="1.000000" fill-rule="nonzero"/>
		<path id="Vector" d="M10.83 20.37L5.05 20.37C4.65 20.37 4.33 20.7 4.33 21.1L4.33 26.88C4.33 27.28 4.65 27.6 5.05 27.6L10.83 27.6C11.23 27.6 11.56 27.28 11.56 26.88L11.56 21.1C11.56 20.7 11.23 20.37 10.83 20.37ZM10.11 26.16L5.78 26.16L5.78 21.82L10.11 21.82L10.11 26.16Z" fill="#95E1D3" fill-opacity="1.000000" fill-rule="nonzero"/>
		<path id="Vector" d="M36.55 15.15C36.28 15.04 35.97 15.1 35.76 15.31L28.4 22.67C28.4 22.67 28.4 22.67 28.4 22.67C28.4 22.67 28.4 22.67 28.4 22.67L19.81 31.26C19.81 31.26 19.81 31.26 19.81 31.26C19.81 31.26 19.81 31.26 19.81 31.26L15.31 35.76C15.1 35.97 15.04 36.28 15.15 36.55C15.27 36.82 15.53 37 15.82 37L36.27 37C36.67 37 36.99 36.67 36.99 36.27L36.99 15.82C36.99 15.53 36.82 15.27 36.55 15.15ZM35.55 35.55L17.57 35.55L20.32 32.79L21.01 33.48C21.15 33.62 21.34 33.69 21.52 33.69C21.71 33.69 21.89 33.62 22.04 33.48C22.32 33.2 22.32 32.74 22.04 32.46L21.35 31.77L23.19 29.93L23.87 30.62C24.02 30.76 24.2 30.83 24.39 30.83C24.57 30.83 24.76 30.76 24.9 30.62C25.18 30.34 25.18 29.88 24.9 29.6L24.21 28.91L26.05 27.07L26.74 27.76C26.88 27.9 27.06 27.97 27.25 27.97C27.43 27.97 27.62 27.9 27.76 27.76C28.04 27.48 28.04 27.02 27.76 26.74L27.07 26.05L28.91 24.21L29.6 24.9C29.74 25.04 29.92 25.11 30.11 25.11C30.29 25.11 30.48 25.04 30.62 24.9C30.9 24.61 30.9 24.16 30.62 23.87L29.93 23.19L31.77 21.35L32.46 22.04C32.6 22.18 32.79 22.25 32.97 22.25C33.16 22.25 33.34 22.18 33.48 22.04C33.76 21.75 33.76 21.3 33.48 21.01L32.79 20.32L35.55 17.57L35.55 35.55Z" fill="#95E1D3" fill-opacity="1.000000" fill-rule="nonzero"/>
		<path id="Vector" d="M32.94 23.88C32.67 23.76 32.35 23.83 32.15 24.03L24.03 32.15C23.83 32.35 23.76 32.67 23.88 32.94C23.99 33.21 24.25 33.38 24.54 33.38L32.66 33.38C33.06 33.38 33.38 33.06 33.38 32.66L33.38 24.54C33.38 24.25 33.21 23.99 32.94 23.88ZM31.94 31.94L26.29 31.94L31.94 26.29L31.94 31.94Z" fill="#95E1D3" fill-opacity="1.000000" fill-rule="nonzero"/>
		<path id="Vector" d="M33.46 10.78C33.26 10.58 32.96 10.52 32.7 10.61L27.76 12.42C27.67 12.46 27.58 12.51 27.5 12.59L26.11 13.98L17.05 4.92C16.92 4.78 16.74 4.7 16.54 4.7C16.35 4.7 16.17 4.78 16.03 4.92L5.13 15.82L2.46 15.82L16.54 1.74L24.27 9.47C24.55 9.75 25.01 9.75 25.29 9.47C25.58 9.19 25.58 8.73 25.29 8.45L17.06 0.21C16.77 -0.08 16.32 -0.08 16.03 0.21L0.21 16.03C0 16.24 -0.06 16.55 0.05 16.82C0.16 17.09 0.43 17.27 0.72 17.27L1.44 17.27L1.44 36.27C1.44 36.67 1.76 37 2.16 37L13.65 37C14.05 37 14.37 36.67 14.37 36.27C14.37 35.87 14.05 35.55 13.65 35.55L2.89 35.55L2.89 17.27L5.43 17.27C5.62 17.27 5.8 17.19 5.94 17.06L16.54 6.45L25.09 15L14.38 25.71L14.38 19.22L19.43 19.22C19.83 19.22 20.16 18.89 20.16 18.5C20.16 18.1 19.83 17.77 19.43 17.77L13.65 17.77C13.25 17.77 12.93 18.1 12.93 18.5L12.93 26.88C12.93 26.96 12.95 27.04 12.97 27.12L12.32 27.77C11.18 28.91 11.18 30.77 12.32 31.91C12.9 32.49 13.65 32.77 14.4 32.77C15.15 32.77 15.9 32.49 16.47 31.92L22.57 25.82C22.85 25.54 22.85 25.08 22.57 24.8C22.29 24.52 21.83 24.52 21.55 24.8L16.93 29.42L14.82 27.31L28.03 14.11L30.13 16.21L25.09 21.26C24.81 21.54 24.81 22 25.09 22.28C25.37 22.56 25.83 22.56 26.11 22.28L31.65 16.74C31.73 16.66 31.78 16.57 31.82 16.48L33.63 11.54C33.72 11.28 33.66 10.98 33.46 10.78ZM15.91 30.44L15.45 30.89C15.17 31.17 14.8 31.33 14.4 31.33C14 31.33 13.63 31.17 13.35 30.89C13.07 30.61 12.91 30.24 12.91 29.84C12.91 29.44 13.07 29.07 13.35 28.79L13.8 28.33L15.91 30.44ZM30.86 14.89L29.35 13.38L31.73 12.51L30.86 14.89Z" fill="#95E1D3" fill-opacity="1.000000" fill-rule="nonzero"/>
		<path id="Vector" d="M24.33 23.04C24.19 22.91 24.01 22.83 23.82 22.83C23.63 22.83 23.44 22.91 23.3 23.04C23.17 23.18 23.09 23.36 23.09 23.55C23.09 23.74 23.17 23.93 23.3 24.06C23.44 24.2 23.62 24.27 23.82 24.27C24.01 24.27 24.19 24.2 24.33 24.06C24.46 23.93 24.54 23.74 24.54 23.55C24.54 23.36 24.46 23.18 24.33 23.04Z" fill="#95E1D3" fill-opacity="1.000000" fill-rule="nonzero"/>
		<path id="Vector" d="M16.54 10.91C15.03 10.91 13.8 12.14 13.8 13.65C13.8 15.17 15.03 16.4 16.54 16.4C18.06 16.4 19.29 15.17 19.29 13.65C19.29 12.14 18.06 10.91 16.54 10.91ZM16.54 14.95C15.83 14.95 15.24 14.37 15.24 13.65C15.24 12.94 15.83 12.35 16.54 12.35C17.26 12.35 17.84 12.94 17.84 13.65C17.84 14.37 17.26 14.95 16.54 14.95Z" fill="#95E1D3" fill-opacity="1.000000" fill-rule="nonzero"/>
	</g>
</svg>
