<svg width="37.000000" height="37.000000" viewBox="0 0 37 37" fill="none" xmlns="http://www.w3.org/2000/svg" xmlns:xlink="http://www.w3.org/1999/xlink">
	<desc>
			Created with Pixso.
	</desc>
	<defs>
		<clipPath id="clip6_7">
			<rect id="paper 1" width="37.000000" height="37.000000" fill="white" fill-opacity="0"/>
		</clipPath>
	</defs>
	<rect id="paper 1" width="37.000000" height="37.000000" fill="#FFFFFF" fill-opacity="0"/>
	<g clip-path="url(#clip6_7)">
		<path id="Vector" d="M5.31 26.52C5.18 26.52 5.05 26.47 4.96 26.37C4.87 26.28 4.81 26.15 4.81 26.02L4.81 7.63C4.84 6.41 5.34 5.24 6.21 4.39C7.09 3.54 8.27 3.06 9.49 3.07L30.82 3.07C30.95 3.07 31.08 3.12 31.17 3.21C31.26 3.31 31.32 3.44 31.32 3.57C31.32 3.7 31.26 3.83 31.17 3.92C31.08 4.02 30.95 4.07 30.82 4.07L9.49 4.07C8.53 4.06 7.61 4.43 6.92 5.1C6.23 5.77 5.83 6.68 5.81 7.64L5.81 26.02C5.81 26.15 5.76 26.28 5.67 26.37C5.57 26.47 5.45 26.52 5.31 26.52Z" fill="#95E1D3" fill-opacity="1.000000" fill-rule="nonzero"/>
		<path id="Vector" d="M29.77 12.42L26.65 12.42C26.51 12.42 26.39 12.37 26.29 12.27C26.2 12.18 26.15 12.05 26.15 11.92C26.15 11.79 26.2 11.66 26.29 11.56C26.39 11.47 26.51 11.42 26.65 11.42L28.69 11.42C28.49 11.05 28.38 10.65 28.35 10.24C28.33 9.82 28.39 9.41 28.54 9.02L26.65 9.02C26.51 9.02 26.39 8.97 26.29 8.88C26.2 8.78 26.15 8.65 26.15 8.52C26.15 8.39 26.2 8.26 26.29 8.17C26.39 8.07 26.51 8.02 26.65 8.02L29.33 8.02C29.42 8.02 29.51 8.05 29.58 8.09C29.66 8.14 29.72 8.21 29.77 8.29C29.81 8.36 29.83 8.45 29.83 8.54C29.82 8.64 29.79 8.72 29.74 8.8C29.64 8.96 28.73 10.45 30.08 11.53C30.16 11.59 30.22 11.68 30.25 11.78C30.28 11.88 30.27 11.99 30.24 12.08C30.2 12.18 30.14 12.27 30.06 12.33C29.97 12.39 29.87 12.42 29.77 12.42Z" fill="#95E1D3" fill-opacity="1.000000" fill-rule="nonzero"/>
		<path id="Vector" d="M26.65 30.32C26.51 30.32 26.39 30.26 26.29 30.17C26.2 30.07 26.15 29.95 26.15 29.82L26.15 7.63C26.15 7.5 26.2 7.37 26.29 7.27C26.39 7.18 26.51 7.13 26.65 7.13C26.78 7.13 26.9 7.18 27 7.27C27.09 7.37 27.15 7.5 27.15 7.63L27.15 29.82C27.15 29.95 27.09 30.07 27 30.17C26.9 30.26 26.78 30.32 26.65 30.32Z" fill="#95E1D3" fill-opacity="1.000000" fill-rule="nonzero"/>
		<path id="Vector" d="M4.29 33.92C3.47 33.92 2.67 33.63 2.05 33.1C1.95 33.02 1.85 32.93 1.76 32.84C1.2 32.28 0.8 31.57 0.61 30.8C0.43 30.03 0.45 29.22 0.7 28.47C0.94 27.71 1.39 27.04 1.99 26.52C2.59 26 3.32 25.66 4.1 25.53C4.13 25.52 4.16 25.52 4.19 25.52L23.26 25.52C23.39 25.52 23.51 25.57 23.6 25.65C23.69 25.74 23.75 25.85 23.76 25.98C23.77 26.1 23.73 26.23 23.65 26.33C23.58 26.43 23.46 26.49 23.34 26.51C22.74 26.61 22.18 26.88 21.72 27.27C21.25 27.67 20.91 28.19 20.73 28.77C20.54 29.35 20.52 29.97 20.66 30.57C20.8 31.16 21.11 31.7 21.54 32.13C21.61 32.2 21.68 32.27 21.76 32.33C22.19 32.69 22.73 32.9 23.3 32.92L23.36 32.92L23.39 32.92C23.78 32.91 24.16 32.82 24.52 32.66C25 32.43 25.41 32.08 25.7 31.63C25.99 31.18 26.15 30.66 26.15 30.12C26.15 29.99 26.2 29.86 26.29 29.77C26.39 29.68 26.51 29.62 26.65 29.62C26.78 29.62 26.9 29.68 27 29.77C27.09 29.86 27.15 29.99 27.15 30.12C27.15 30.85 26.94 31.56 26.55 32.17C26.16 32.78 25.6 33.26 24.95 33.56C24.47 33.79 23.94 33.91 23.42 33.92C23.4 33.92 23.38 33.92 23.36 33.92L4.34 33.92C4.32 33.92 4.31 33.92 4.29 33.92ZM4.23 26.52C3.63 26.63 3.07 26.89 2.62 27.29C2.16 27.7 1.83 28.21 1.64 28.79C1.46 29.37 1.44 29.99 1.59 30.58C1.73 31.17 2.04 31.71 2.47 32.13C2.54 32.2 2.61 32.27 2.69 32.34C3.13 32.7 3.68 32.91 4.25 32.92L4.29 32.92L20.92 32.92C20.89 32.89 20.86 32.87 20.83 32.84C20.02 32.03 19.57 30.93 19.57 29.79C19.57 28.64 20.02 27.55 20.83 26.74C20.9 26.66 20.98 26.59 21.06 26.52L4.23 26.52Z" fill="#95E1D3" fill-opacity="1.000000" fill-rule="nonzero"/>
		<path id="Vector" d="M30.82 12.42L29.9 12.42C29.76 12.42 29.64 12.37 29.54 12.27C29.45 12.18 29.4 12.05 29.4 11.92C29.4 11.79 29.45 11.66 29.54 11.56C29.64 11.47 29.76 11.42 29.9 11.42L30.82 11.42C31.54 11.42 32.25 11.21 32.85 10.81C33.45 10.41 33.92 9.84 34.2 9.17C34.48 8.51 34.56 7.78 34.43 7.06C34.3 6.35 33.96 5.7 33.45 5.18C32.95 4.66 32.3 4.31 31.6 4.15C30.89 4 30.16 4.06 29.48 4.32C28.81 4.58 28.23 5.04 27.81 5.63C27.4 6.22 27.17 6.92 27.15 7.64C27.14 7.71 27.13 7.77 27.1 7.83C27.08 7.89 27.04 7.95 26.99 7.99C26.94 8.04 26.89 8.07 26.83 8.1C26.76 8.12 26.7 8.13 26.63 8.13C26.57 8.13 26.5 8.11 26.44 8.09C26.38 8.06 26.33 8.02 26.28 7.97C26.24 7.93 26.2 7.87 26.18 7.81C26.16 7.75 26.14 7.68 26.15 7.62C26.17 6.7 26.46 5.81 26.99 5.05C27.52 4.3 28.26 3.72 29.12 3.39C29.97 3.05 30.91 2.98 31.81 3.17C32.71 3.36 33.53 3.82 34.17 4.48C34.81 5.14 35.24 5.97 35.42 6.87C35.59 7.78 35.49 8.71 35.13 9.56C34.77 10.41 34.17 11.13 33.4 11.64C32.64 12.15 31.74 12.42 30.82 12.42L30.82 12.42Z" fill="#95E1D3" fill-opacity="1.000000" fill-rule="nonzero"/>
		<path id="Vector" d="M23.76 8.41L8.73 8.41C8.59 8.41 8.47 8.36 8.37 8.27C8.28 8.17 8.23 8.04 8.23 7.91C8.23 7.78 8.28 7.65 8.37 7.56C8.47 7.46 8.59 7.41 8.73 7.41L23.76 7.41C23.9 7.41 24.02 7.46 24.12 7.56C24.21 7.65 24.26 7.78 24.26 7.91C24.26 8.04 24.21 8.17 24.12 8.27C24.02 8.36 23.9 8.41 23.76 8.41Z" fill="#95E1D3" fill-opacity="1.000000" fill-rule="nonzero"/>
		<path id="Vector" d="M23.76 12.92L19.75 12.92C19.61 12.92 19.49 12.87 19.39 12.78C19.3 12.68 19.25 12.56 19.25 12.42C19.25 12.29 19.3 12.16 19.39 12.07C19.49 11.98 19.61 11.92 19.75 11.92L23.76 11.92C23.9 11.92 24.02 11.98 24.12 12.07C24.21 12.16 24.26 12.29 24.26 12.42C24.26 12.56 24.21 12.68 24.12 12.78C24.02 12.87 23.9 12.92 23.76 12.92Z" fill="#95E1D3" fill-opacity="1.000000" fill-rule="nonzero"/>
		<path id="Vector" d="M9.87 12.92L8.73 12.92C8.59 12.92 8.47 12.87 8.37 12.78C8.28 12.68 8.23 12.56 8.23 12.42C8.23 12.29 8.28 12.16 8.37 12.07C8.47 11.98 8.59 11.92 8.73 11.92L9.87 11.92C10 11.92 10.13 11.98 10.22 12.07C10.32 12.16 10.37 12.29 10.37 12.42C10.37 12.56 10.32 12.68 10.22 12.78C10.13 12.87 10 12.92 9.87 12.92Z" fill="#95E1D3" fill-opacity="1.000000" fill-rule="nonzero"/>
		<path id="Vector" d="M23.76 17.44L19.95 17.44C19.82 17.44 19.69 17.38 19.6 17.29C19.51 17.2 19.45 17.07 19.45 16.94C19.45 16.8 19.51 16.68 19.6 16.58C19.69 16.49 19.82 16.44 19.95 16.44L23.76 16.44C23.9 16.44 24.02 16.49 24.12 16.58C24.21 16.68 24.26 16.8 24.26 16.94C24.26 17.07 24.21 17.2 24.12 17.29C24.02 17.38 23.9 17.44 23.76 17.44Z" fill="#95E1D3" fill-opacity="1.000000" fill-rule="nonzero"/>
		<path id="Vector" d="M9.3 17.44L8.73 17.44C8.59 17.44 8.47 17.38 8.37 17.29C8.28 17.2 8.23 17.07 8.23 16.94C8.23 16.8 8.28 16.68 8.37 16.58C8.47 16.49 8.59 16.44 8.73 16.44L9.3 16.44C9.43 16.44 9.56 16.49 9.65 16.58C9.75 16.68 9.8 16.8 9.8 16.94C9.8 17.07 9.75 17.2 9.65 17.29C9.56 17.38 9.43 17.44 9.3 17.44Z" fill="#95E1D3" fill-opacity="1.000000" fill-rule="nonzero"/>
		<path id="Vector" d="M23.76 21.95L23.22 21.95C23.09 21.95 22.96 21.9 22.87 21.8C22.78 21.71 22.72 21.58 22.72 21.45C22.72 21.32 22.78 21.19 22.87 21.1C22.96 21 23.09 20.95 23.22 20.95L23.76 20.95C23.9 20.95 24.02 21 24.12 21.1C24.21 21.19 24.26 21.32 24.26 21.45C24.26 21.58 24.21 21.71 24.12 21.8C24.02 21.9 23.9 21.95 23.76 21.95Z" fill="#95E1D3" fill-opacity="1.000000" fill-rule="nonzero"/>
		<path id="Vector" d="M15.47 21.95L8.72 21.95C8.59 21.95 8.46 21.9 8.37 21.8C8.28 21.71 8.22 21.58 8.22 21.45C8.22 21.32 8.28 21.19 8.37 21.1C8.46 21 8.59 20.95 8.72 20.95L15.47 20.95C15.61 20.95 15.73 21 15.83 21.1C15.92 21.19 15.97 21.32 15.97 21.45C15.97 21.58 15.92 21.71 15.83 21.8C15.73 21.9 15.61 21.95 15.47 21.95Z" fill="#95E1D3" fill-opacity="1.000000" fill-rule="nonzero"/>
		<path id="Vector" d="M14.47 19.95C13.78 19.95 13.11 19.78 12.51 19.45C11.91 19.13 11.39 18.67 11.01 18.1C10.63 17.53 10.4 16.88 10.33 16.2C10.27 15.52 10.37 14.83 10.63 14.2C10.89 13.57 11.3 13.01 11.83 12.58C12.36 12.15 12.99 11.85 13.66 11.72C14.33 11.58 15.02 11.62 15.67 11.82C16.33 12.01 16.92 12.37 17.41 12.85C17.99 13.44 18.38 14.18 18.54 14.98C18.7 15.79 18.62 16.62 18.31 17.38C17.99 18.14 17.46 18.79 16.78 19.25C16.09 19.7 15.29 19.95 14.47 19.95ZM14.47 12.64C13.74 12.64 13.03 12.89 12.47 13.35C11.9 13.82 11.52 14.46 11.37 15.18C11.23 15.89 11.34 16.64 11.69 17.28C12.03 17.92 12.59 18.43 13.26 18.71C13.94 18.99 14.69 19.02 15.38 18.81C16.08 18.6 16.69 18.15 17.09 17.55C17.5 16.94 17.68 16.21 17.61 15.48C17.54 14.76 17.22 14.08 16.7 13.56C16.41 13.27 16.06 13.03 15.68 12.88C15.29 12.72 14.88 12.64 14.47 12.64L14.47 12.64Z" fill="#95E1D3" fill-opacity="1.000000" fill-rule="nonzero"/>
		<path id="Vector" d="M13.49 16.29C13.16 16.29 12.84 16.18 12.59 15.97C12.33 15.76 12.16 15.47 12.1 15.15C12.03 14.83 12.08 14.5 12.24 14.21C12.39 13.92 12.64 13.69 12.94 13.57C13.25 13.44 13.58 13.42 13.9 13.52C14.21 13.61 14.48 13.82 14.66 14.09C14.85 14.36 14.93 14.69 14.9 15.01C14.86 15.34 14.72 15.64 14.49 15.88C14.36 16.01 14.2 16.11 14.03 16.18C13.86 16.25 13.67 16.29 13.49 16.29ZM13.49 14.46C13.39 14.46 13.3 14.49 13.22 14.55C13.15 14.61 13.1 14.7 13.08 14.79C13.06 14.89 13.07 14.99 13.12 15.07C13.16 15.16 13.24 15.22 13.33 15.26C13.42 15.3 13.52 15.3 13.61 15.27C13.7 15.25 13.78 15.19 13.83 15.11C13.89 15.03 13.91 14.93 13.9 14.83C13.89 14.74 13.85 14.65 13.78 14.58C13.74 14.54 13.7 14.51 13.65 14.49C13.6 14.47 13.54 14.46 13.49 14.46Z" fill="#95E1D3" fill-opacity="1.000000" fill-rule="nonzero"/>
		<path id="Vector" d="M19.95 23.5C19.82 23.5 19.69 23.45 19.59 23.35L15.7 19.46C15.65 19.41 15.62 19.36 15.59 19.3C15.56 19.24 15.55 19.17 15.55 19.1C15.55 19.04 15.56 18.97 15.59 18.91C15.61 18.85 15.65 18.79 15.7 18.75C15.74 18.7 15.8 18.66 15.86 18.64C15.92 18.61 15.99 18.6 16.05 18.6C16.12 18.6 16.19 18.61 16.25 18.64C16.31 18.67 16.36 18.7 16.41 18.75L20.15 22.49L21.11 22.43L21.17 21.47L21.08 21.38L20.27 21.29C20.15 21.28 20.05 21.23 19.97 21.15C19.89 21.07 19.84 20.96 19.83 20.85L19.76 20.26L19.16 20.19C19.05 20.18 18.95 20.12 18.87 20.04C18.79 19.96 18.73 19.86 18.72 19.75L18.63 18.93L17.43 17.73C17.34 17.64 17.29 17.51 17.29 17.38C17.29 17.25 17.34 17.12 17.44 17.03C17.53 16.94 17.65 16.88 17.78 16.88C17.92 16.88 18.04 16.93 18.14 17.02L19.46 18.35C19.54 18.42 19.59 18.53 19.6 18.64L19.67 19.24L20.26 19.31C20.38 19.32 20.48 19.37 20.56 19.45C20.64 19.53 20.69 19.63 20.7 19.75L20.77 20.34L21.37 20.41C21.48 20.42 21.59 20.47 21.67 20.55L22.03 20.92C22.08 20.97 22.12 21.03 22.14 21.09C22.17 21.16 22.18 21.23 22.17 21.3L22.08 22.93C22.07 23.05 22.02 23.17 21.93 23.26C21.85 23.34 21.73 23.4 21.61 23.4L19.98 23.5L19.95 23.5Z" fill="#95E1D3" fill-opacity="1.000000" fill-rule="nonzero"/>
	</g>
</svg>
