<svg width="37.000000" height="36.000000" viewBox="0 0 37 36" fill="none" xmlns="http://www.w3.org/2000/svg" xmlns:xlink="http://www.w3.org/1999/xlink">
	<desc>
			Created with Pixso.
	</desc>
	<defs/>
	<path id="Vector" d="M17.89 4.52C15.27 4.52 12.71 5.28 10.53 6.71C8.35 8.13 6.65 10.16 5.65 12.53C4.65 14.9 4.38 17.51 4.9 20.03C5.41 22.54 6.67 24.85 8.52 26.67C10.38 28.48 12.74 29.72 15.31 30.22C17.88 30.72 20.54 30.46 22.96 29.48C25.38 28.5 27.45 26.84 28.91 24.7C30.37 22.57 31.14 20.06 31.14 17.5C31.14 14.06 29.74 10.76 27.26 8.33C24.77 5.9 21.41 4.53 17.89 4.52ZM28.92 18L30.1 18C29.98 20.82 28.84 23.51 26.89 25.58L26.05 24.77C26.01 24.72 25.95 24.68 25.89 24.66C25.82 24.63 25.76 24.62 25.69 24.62C25.62 24.62 25.55 24.63 25.49 24.66C25.43 24.68 25.37 24.72 25.32 24.77C25.28 24.82 25.24 24.87 25.21 24.93C25.19 24.99 25.17 25.06 25.17 25.13C25.17 25.19 25.19 25.26 25.21 25.32C25.24 25.38 25.28 25.44 25.32 25.48L26.15 26.3C24.04 28.21 21.29 29.33 18.41 29.44L18.41 28.29C18.41 28.15 18.36 28.02 18.26 27.93C18.16 27.83 18.03 27.78 17.89 27.78C17.76 27.78 17.63 27.83 17.53 27.93C17.43 28.02 17.38 28.15 17.38 28.29L17.38 29.44C14.5 29.33 11.75 28.21 9.63 26.3L10.46 25.48C10.51 25.44 10.55 25.38 10.58 25.32C10.6 25.26 10.62 25.19 10.62 25.13C10.62 25.06 10.6 24.99 10.58 24.93C10.55 24.87 10.51 24.82 10.46 24.77C10.42 24.72 10.36 24.68 10.3 24.66C10.23 24.63 10.17 24.62 10.1 24.62C10.03 24.62 9.96 24.63 9.9 24.66C9.84 24.68 9.78 24.72 9.73 24.77L8.9 25.58C6.95 23.51 5.81 20.82 5.69 18L6.87 18C7.01 18 7.14 17.95 7.24 17.85C7.33 17.76 7.39 17.63 7.39 17.5C7.39 17.36 7.33 17.23 7.24 17.14C7.14 17.04 7.01 16.99 6.87 16.99L5.69 16.99C5.81 14.17 6.95 11.48 8.9 9.41L9.73 10.22C9.83 10.32 9.96 10.37 10.1 10.37C10.24 10.37 10.37 10.32 10.46 10.22C10.56 10.13 10.62 10 10.62 9.86C10.62 9.73 10.56 9.6 10.46 9.51L9.63 8.69C11.75 6.78 14.5 5.67 17.38 5.55L17.38 6.7C17.38 6.84 17.43 6.97 17.53 7.06C17.62 7.16 17.76 7.21 17.89 7.21C18.03 7.21 18.16 7.16 18.26 7.06C18.36 6.97 18.41 6.84 18.41 6.7L18.41 5.55C21.29 5.67 24.03 6.78 26.15 8.69L25.32 9.51C25.27 9.55 25.24 9.61 25.21 9.67C25.18 9.73 25.17 9.8 25.17 9.86C25.17 9.93 25.18 10 25.21 10.06C25.24 10.12 25.27 10.17 25.32 10.22C25.37 10.27 25.43 10.31 25.49 10.33C25.55 10.36 25.62 10.37 25.69 10.37C25.76 10.37 25.82 10.36 25.89 10.33C25.95 10.31 26.01 10.27 26.05 10.22L26.88 9.41C28.84 11.48 29.98 14.17 30.1 16.99L28.92 16.99C28.78 16.99 28.65 17.04 28.55 17.14C28.45 17.23 28.4 17.36 28.4 17.5C28.4 17.63 28.45 17.76 28.55 17.85C28.65 17.95 28.78 18 28.92 18L28.92 18Z" fill="#95E1D3" fill-opacity="1.000000" fill-rule="nonzero"/>
	<path id="Vector" d="M23.76 16.99L20.5 16.99C20.4 16.48 20.14 16.02 19.77 15.66C19.4 15.29 18.93 15.05 18.41 14.94L18.41 9.94C18.41 9.81 18.36 9.68 18.26 9.59C18.16 9.49 18.03 9.44 17.89 9.44C17.76 9.44 17.62 9.49 17.53 9.59C17.43 9.68 17.38 9.81 17.38 9.94L17.38 14.94C16.9 15.04 16.47 15.25 16.11 15.57C15.75 15.88 15.49 16.29 15.35 16.74C15.21 17.19 15.2 17.67 15.31 18.13C15.43 18.58 15.67 19 16.01 19.34C16.35 19.67 16.78 19.91 17.25 20.02C17.71 20.13 18.2 20.12 18.66 19.99C19.13 19.85 19.54 19.59 19.86 19.24C20.19 18.89 20.41 18.46 20.5 18L23.76 18C23.9 18 24.03 17.95 24.13 17.85C24.22 17.76 24.28 17.63 24.28 17.5C24.28 17.36 24.22 17.23 24.13 17.14C24.03 17.04 23.9 16.99 23.76 16.99ZM17.89 19.08C17.57 19.08 17.26 18.99 16.99 18.82C16.72 18.64 16.52 18.39 16.39 18.1C16.27 17.81 16.24 17.49 16.3 17.18C16.36 16.88 16.52 16.59 16.74 16.37C16.97 16.15 17.26 16 17.58 15.94C17.89 15.87 18.22 15.91 18.51 16.03C18.81 16.15 19.06 16.35 19.24 16.61C19.42 16.87 19.52 17.18 19.52 17.5C19.52 17.92 19.35 18.32 19.04 18.62C18.74 18.92 18.32 19.08 17.89 19.08Z" fill="#95E1D3" fill-opacity="1.000000" fill-rule="nonzero"/>
	<path id="Vector" d="M35.96 1.58L34.15 -0.19C33.62 -0.71 32.9 -1 32.15 -1C31.4 -1 30.68 -0.71 30.14 -0.19L28.73 1.2C28.68 1.25 28.64 1.3 28.61 1.36C28.59 1.42 28.58 1.49 28.58 1.56C28.58 1.62 28.59 1.69 28.61 1.75C28.64 1.81 28.68 1.87 28.73 1.91L30.07 3.23L28.08 5.17C25.2 2.88 21.6 1.63 17.89 1.63C14.18 1.63 10.59 2.88 7.71 5.17L5.72 3.23L7.06 1.91C7.11 1.87 7.14 1.81 7.17 1.75C7.2 1.69 7.21 1.62 7.21 1.56C7.21 1.49 7.2 1.42 7.17 1.36C7.14 1.3 7.11 1.25 7.06 1.2L5.64 -0.19C5.11 -0.71 4.39 -1 3.64 -1C2.89 -1 2.17 -0.71 1.64 -0.19L-0.17 1.58C-0.7 2.1 -1 2.81 -1 3.54C-1 4.28 -0.7 4.98 -0.17 5.5L1.25 6.89C1.29 6.94 1.35 6.97 1.41 7C1.48 7.02 1.54 7.04 1.61 7.04C1.68 7.04 1.75 7.02 1.81 7C1.87 6.97 1.93 6.94 1.98 6.89L3.32 5.58L5.3 7.52C2.82 10.52 1.54 14.3 1.7 18.16C1.87 22.02 3.47 25.69 6.21 28.47L3.66 34.06C3.57 34.27 3.53 34.5 3.55 34.73C3.56 34.96 3.64 35.18 3.77 35.37C3.89 35.56 4.07 35.72 4.27 35.83C4.48 35.94 4.71 36 4.94 36L6.24 36C6.51 35.99 6.77 35.92 7 35.77C7.23 35.63 7.41 35.42 7.52 35.18L9.42 31.01C11.97 32.54 14.9 33.36 17.89 33.36C20.89 33.36 23.82 32.54 26.37 31.01L28.27 35.18C28.38 35.42 28.56 35.63 28.79 35.77C29.01 35.92 29.28 35.99 29.55 36L30.84 36C31.08 36 31.31 35.94 31.51 35.83C31.72 35.72 31.89 35.56 32.02 35.37C32.15 35.18 32.22 34.96 32.24 34.73C32.26 34.5 32.22 34.27 32.12 34.06L29.58 28.47C32.31 25.69 33.92 22.02 34.08 18.16C34.25 14.3 32.97 10.52 30.48 7.52L32.47 5.58L33.81 6.89C33.86 6.94 33.91 6.97 33.98 7C34.04 7.02 34.11 7.04 34.17 7.04C34.24 7.04 34.31 7.02 34.37 7C34.44 6.97 34.49 6.94 34.54 6.89L35.96 5.5C36.49 4.98 36.79 4.28 36.79 3.54C36.79 2.81 36.49 2.1 35.96 1.58ZM1.61 5.82L0.56 4.79C0.22 4.46 0.03 4.01 0.03 3.54C0.03 3.07 0.22 2.63 0.56 2.3L2.37 0.53C2.7 0.2 3.16 0.01 3.64 0.01C4.12 0.01 4.57 0.2 4.91 0.53L5.96 1.56L1.61 5.82ZM4.05 4.86L4.99 3.94L6.92 5.84C6.6 6.13 6.28 6.44 5.98 6.76L4.05 4.86ZM6.57 34.77C6.54 34.83 6.5 34.89 6.44 34.93C6.38 34.96 6.31 34.98 6.24 34.98L4.94 34.98C4.88 34.98 4.82 34.97 4.77 34.94C4.71 34.91 4.67 34.87 4.63 34.82C4.6 34.77 4.58 34.71 4.58 34.65C4.57 34.59 4.58 34.53 4.61 34.48L7 29.22C7.49 29.66 8 30.07 8.55 30.44L6.57 34.77ZM31.15 34.82C31.12 34.87 31.07 34.91 31.02 34.94C30.96 34.97 30.9 34.98 30.84 34.98L29.55 34.98C29.48 34.98 29.41 34.96 29.35 34.93C29.29 34.89 29.24 34.83 29.21 34.77L27.24 30.44C27.78 30.07 28.3 29.66 28.79 29.23L31.18 34.48C31.21 34.53 31.22 34.59 31.21 34.65C31.21 34.71 31.18 34.77 31.15 34.82L31.15 34.82ZM17.89 32.35C14.89 32.35 11.96 31.48 9.46 29.84C6.97 28.21 5.03 25.89 3.88 23.18C2.73 20.46 2.43 17.48 3.01 14.6C3.6 11.72 5.04 9.07 7.17 6.99C9.29 4.92 11.99 3.5 14.93 2.93C17.88 2.36 20.93 2.65 23.7 3.77C26.47 4.9 28.84 6.8 30.51 9.24C32.17 11.69 33.06 14.56 33.06 17.5C33.06 21.43 31.46 25.21 28.61 27.99C25.77 30.78 21.91 32.34 17.89 32.35ZM29.8 6.76C29.5 6.44 29.19 6.13 28.86 5.84L30.8 3.94L31.74 4.86L29.8 6.76ZM35.23 4.79L34.17 5.82L29.82 1.56L30.87 0.53C31.21 0.2 31.67 0.01 32.15 0.01C32.62 0.01 33.08 0.2 33.42 0.53L35.23 2.3C35.56 2.63 35.75 3.07 35.75 3.54C35.75 4.01 35.56 4.46 35.23 4.79L35.23 4.79Z" fill="#95E1D3" fill-opacity="1.000000" fill-rule="nonzero"/>
</svg>
