<svg width="37.000000" height="37.000000" viewBox="0 0 37 37" fill="none" xmlns="http://www.w3.org/2000/svg" xmlns:xlink="http://www.w3.org/1999/xlink">
	<desc>
			Created with Pixso.
	</desc>
	<defs>
		<clipPath id="clip6_61">
			<rect id="digital-marketing 1" width="37.000000" height="37.000000" fill="white" fill-opacity="0"/>
		</clipPath>
	</defs>
	<rect id="digital-marketing 1" width="37.000000" height="37.000000" fill="#FFFFFF" fill-opacity="0"/>
	<g clip-path="url(#clip6_61)">
		<path id="Vector" d="M13.56 15.41L13.56 1.85C13.56 0.8 12.76 0 11.71 0L5.54 0C4.5 0 3.69 0.8 3.69 1.85L3.69 15.41C3.69 16.46 4.5 17.26 5.54 17.26L11.71 17.26C12.76 17.26 13.56 16.46 13.56 15.41ZM12.33 13.56L4.93 13.56L4.93 3.7L12.33 3.7L12.33 13.56ZM5.54 1.23L11.71 1.23C12.08 1.23 12.33 1.47 12.33 1.85L12.33 2.46L4.93 2.46L4.93 1.85C4.93 1.47 5.17 1.23 5.54 1.23ZM4.93 15.41L4.93 14.8L12.33 14.8L12.33 15.41C12.33 15.78 12.08 16.03 11.71 16.03L5.54 16.03C5.17 16.03 4.93 15.78 4.93 15.41Z" fill="#95E1D3" fill-opacity="1.000000" fill-rule="nonzero"/>
		<path id="Vector" d="M11.47 8.63L6.78 4.87L6.78 12.39L11.47 8.63ZM8.01 7.46L9.49 8.63L8.01 9.8L8.01 7.46Z" fill="#95E1D3" fill-opacity="1.000000" fill-rule="nonzero"/>
		<path id="Vector" d="M17.26 10.48C17.26 6.41 20.59 3.08 24.66 3.08C26.39 3.08 28.12 3.7 29.47 4.8L28.12 6.16C25.71 4.25 22.26 4.62 20.35 7.02C19.54 8.01 19.11 9.25 19.11 10.48L20.35 10.48C20.35 8.07 22.26 6.16 24.66 6.16C25.59 6.16 26.51 6.47 27.25 7.02L25.9 8.38C25.52 8.14 25.09 8.01 24.66 8.01C23.3 8.01 22.2 9.12 22.2 10.48L23.43 10.48C23.43 9.8 23.98 9.25 24.66 9.25C24.79 9.25 24.85 9.25 24.97 9.31L24.23 10.05L25.09 10.91L25.83 10.17C25.83 10.29 25.9 10.35 25.9 10.48C25.9 11.16 25.34 11.71 24.66 11.71L24.66 12.95C26.02 12.95 27.13 11.84 27.13 10.48C27.13 10.05 27 9.62 26.76 9.25L28.12 7.89C29.53 9.8 29.16 12.51 27.25 13.93C26.51 14.49 25.59 14.8 24.66 14.8L24.66 16.03C27.75 16.03 30.21 13.56 30.21 10.48C30.21 9.25 29.78 8.01 28.98 7.02L30.27 5.73C32.92 8.81 32.55 13.5 29.41 16.15C28.12 17.26 26.39 17.88 24.66 17.88L24.66 19.11C29.41 19.11 33.3 15.29 33.3 10.48C33.3 8.38 32.55 6.41 31.2 4.8L32.31 3.7L35.15 3.7L35.15 2.46L32.68 2.46L32.68 0L31.45 0L31.45 2.83L30.34 3.94C26.7 0.86 21.27 1.23 18.12 4.8C16.77 6.41 16.03 8.38 16.03 10.48L17.26 10.48Z" fill="#95E1D3" fill-opacity="1.000000" fill-rule="nonzero"/>
		<path id="Vector" d="M30.21 22.81L24.79 22.81L13.07 18.5L11.71 18.5C10.66 18.5 9.86 19.3 9.86 20.35L9.86 32.68C9.86 33.73 10.66 34.53 11.71 34.53L13.07 34.53L24.79 29.6L26.51 29.6L26.51 35.15C26.51 36.19 27.31 37 28.36 37C29.41 37 30.21 36.19 30.21 35.15L30.21 29.6C31.26 29.6 32.06 28.79 32.06 27.75L32.06 24.66C32.06 23.61 31.26 22.81 30.21 22.81ZM13.56 19.97L24.05 23.86L24.05 28.55L13.56 32.99L13.56 19.97ZM11.1 32.68L11.1 20.35C11.1 19.97 11.34 19.73 11.71 19.73L12.33 19.73L12.33 33.3L11.71 33.3C11.34 33.3 11.1 33.05 11.1 32.68ZM28.98 35.15C28.98 35.52 28.73 35.76 28.36 35.76C27.99 35.76 27.75 35.52 27.75 35.15L27.75 29.6L28.98 29.6L28.98 35.15ZM30.83 27.75C30.83 28.12 30.58 28.36 30.21 28.36L25.28 28.36L25.28 24.05L30.21 24.05C30.58 24.05 30.83 24.29 30.83 24.66L30.83 27.75Z" fill="#95E1D3" fill-opacity="1.000000" fill-rule="nonzero"/>
		<path id="Vector" d="M6.16 25.28L8.63 25.28L8.63 26.51L6.16 26.51L6.16 25.28Z" fill="#95E1D3" fill-opacity="1.000000" fill-rule="nonzero"/>
		<path id="Vector" d="M6.35 20.79L7.22 19.92L9.06 21.75L8.18 22.62L6.35 20.79Z" fill="#95E1D3" fill-opacity="1.000000" fill-rule="nonzero"/>
		<path id="Vector" d="M6.35 31L8.18 29.17L9.05 30.04L7.22 31.87L6.35 31Z" fill="#95E1D3" fill-opacity="1.000000" fill-rule="nonzero"/>
		<path id="Vector" d="M16.03 11.77L16.03 12.39C16.03 16.09 19.05 19.11 22.75 19.11L23.43 19.11L23.43 11.71L16.65 11.71L16.03 11.77ZM22.2 12.95L22.2 17.88C19.6 17.63 17.57 15.54 17.32 12.95L22.2 12.95Z" fill="#95E1D3" fill-opacity="1.000000" fill-rule="nonzero"/>
		<path id="Vector" d="M14.8 1.85L18.5 1.85L18.5 3.08L14.8 3.08L14.8 1.85Z" fill="#95E1D3" fill-opacity="1.000000" fill-rule="nonzero"/>
		<path id="Vector" d="M34.53 12.95L34.53 24.66C34.53 25.03 34.28 25.28 33.91 25.28L33.3 25.28L33.3 26.51L33.91 26.51C34.96 26.51 35.76 25.71 35.76 24.66L35.76 12.95L34.53 12.95Z" fill="#95E1D3" fill-opacity="1.000000" fill-rule="nonzero"/>
		<path id="Vector" d="M2.46 24.66L2.46 12.95L1.23 12.95L1.23 24.66C1.23 25.71 2.03 26.51 3.08 26.51L4.93 26.51L4.93 25.28L3.08 25.28C2.71 25.28 2.46 25.03 2.46 24.66Z" fill="#95E1D3" fill-opacity="1.000000" fill-rule="nonzero"/>
	</g>
</svg>
