<svg width="37.000000" height="37.000000" viewBox="0 0 37 37" fill="none" xmlns="http://www.w3.org/2000/svg" xmlns:xlink="http://www.w3.org/1999/xlink">
	<desc>
			Created with Pixso.
	</desc>
	<defs>
		<clipPath id="clip6_2">
			<rect id="display 1" width="37.000000" height="37.000000" fill="white" fill-opacity="0"/>
		</clipPath>
	</defs>
	<rect id="display 1" width="37.000000" height="37.000000" fill="#FFFFFF" fill-opacity="0"/>
	<g clip-path="url(#clip6_2)">
		<path id="Vector" d="M35.15 0.02L1.84 0.02C0.82 0.02 0 0.85 0 1.87L0 24.07C0 25.09 0.82 25.92 1.84 25.92L12.33 25.92C14.03 25.92 15.41 27.3 15.41 29C15.41 30.71 14.03 32.09 12.33 32.09C12.32 32.09 12.31 32.09 12.3 32.09C12.26 32.1 12.22 32.11 12.17 32.12C12.14 32.13 12.1 32.14 12.07 32.15C12.04 32.17 12 32.19 11.97 32.22C11.94 32.24 11.91 32.26 11.88 32.29C11.86 32.31 11.84 32.34 11.82 32.37C11.79 32.41 11.77 32.45 11.75 32.49C11.75 32.5 11.74 32.5 11.74 32.51L10.51 36.21C10.4 36.53 10.58 36.88 10.9 36.99C10.96 37.01 11.03 37.02 11.1 37.02L25.9 37.02C26.24 37.02 26.51 36.75 26.51 36.4C26.51 36.34 26.5 36.27 26.48 36.21L25.25 32.51C25.25 32.5 25.24 32.5 25.24 32.49C25.22 32.45 25.2 32.41 25.17 32.37C25.15 32.34 25.13 32.31 25.11 32.29C25.08 32.26 25.05 32.24 25.02 32.22C24.99 32.19 24.95 32.17 24.92 32.15C24.88 32.14 24.85 32.13 24.82 32.12C24.77 32.11 24.73 32.1 24.68 32.09C24.68 32.09 24.67 32.09 24.66 32.09C22.96 32.09 21.58 30.71 21.58 29C21.58 27.3 22.96 25.92 24.66 25.92L35.15 25.92C36.17 25.92 36.99 25.09 36.99 24.07L36.99 1.87C36.99 0.85 36.17 0.02 35.15 0.02ZM20.35 29C20.35 31.21 22.01 33.06 24.21 33.3L25.04 35.79L11.95 35.79L12.78 33.3C14.98 33.06 16.64 31.21 16.65 29C16.65 27.84 16.18 26.73 15.34 25.92L21.65 25.92C20.81 26.73 20.34 27.84 20.35 29ZM35.76 24.07C35.76 24.41 35.49 24.69 35.15 24.69L1.84 24.69C1.5 24.69 1.23 24.41 1.23 24.07L1.23 22.22L35.76 22.22L35.76 24.07ZM1.23 20.99L1.23 1.87C1.23 1.53 1.5 1.25 1.84 1.25L35.15 1.25C35.49 1.25 35.76 1.53 35.76 1.87L35.76 20.99L1.23 20.99Z" fill="#95E1D3" fill-opacity="1.000000" fill-rule="nonzero"/>
		<path id="Vector" d="M26.09 9.3L24.31 8.71L25.15 7.04C25.27 6.8 25.22 6.51 25.04 6.33L23.29 4.58C23.1 4.39 22.82 4.35 22.58 4.47L20.9 5.3L20.31 3.53C20.23 3.27 19.99 3.11 19.73 3.1L17.26 3.1C17 3.1 16.76 3.27 16.68 3.53L16.09 5.3L14.41 4.47C14.17 4.35 13.89 4.39 13.7 4.58L11.95 6.33C11.77 6.51 11.72 6.8 11.84 7.04L12.68 8.71L10.9 9.3C10.65 9.39 10.48 9.62 10.48 9.89L10.48 12.35C10.48 12.62 10.65 12.86 10.9 12.94L12.68 13.53L11.84 15.21C11.72 15.44 11.77 15.73 11.95 15.92L13.7 17.66C13.89 17.85 14.17 17.9 14.41 17.78L16.09 16.94L16.68 18.72C16.76 18.97 17 19.14 17.26 19.14L19.73 19.14C19.99 19.14 20.23 18.97 20.31 18.72L20.91 16.94L22.58 17.78C22.82 17.9 23.1 17.85 23.29 17.66L25.04 15.92C25.22 15.73 25.27 15.44 25.15 15.21L24.31 13.53L26.09 12.94C26.34 12.86 26.51 12.62 26.51 12.35L26.51 9.89C26.51 9.62 26.34 9.39 26.09 9.3ZM25.28 11.91L23.25 12.59C22.93 12.7 22.75 13.05 22.86 13.37C22.87 13.4 22.88 13.42 22.89 13.45L23.85 15.36L22.73 16.48L20.82 15.52C20.52 15.37 20.15 15.49 19.99 15.79C19.98 15.82 19.97 15.85 19.96 15.88L19.28 17.9L17.71 17.9L17.03 15.88C16.92 15.55 16.57 15.38 16.25 15.49C16.22 15.5 16.19 15.51 16.17 15.52L14.26 16.48L13.14 15.36L14.1 13.45C14.25 13.14 14.13 12.77 13.82 12.62C13.79 12.61 13.77 12.6 13.74 12.59L11.71 11.91L11.71 10.33L13.74 9.65C14.06 9.55 14.24 9.2 14.13 8.87C14.12 8.85 14.11 8.82 14.1 8.79L13.14 6.88L14.26 5.77L16.17 6.72C16.47 6.88 16.84 6.75 16.99 6.45C17.01 6.42 17.02 6.39 17.03 6.37L17.71 4.34L19.28 4.34L19.96 6.37C20.07 6.69 20.42 6.87 20.74 6.76C20.77 6.75 20.8 6.74 20.83 6.72L22.74 5.77L23.85 6.88L22.9 8.79C22.74 9.1 22.87 9.47 23.17 9.62C23.2 9.63 23.23 9.65 23.25 9.65L25.28 10.33L25.28 11.91Z" fill="#95E1D3" fill-opacity="1.000000" fill-rule="nonzero"/>
		<path id="Vector" d="M18.5 7.42C16.45 7.42 14.8 9.08 14.8 11.12C14.8 13.16 16.45 14.82 18.5 14.82C20.54 14.82 22.2 13.16 22.2 11.12C22.19 9.08 20.54 7.42 18.5 7.42ZM18.5 13.59C17.13 13.59 16.03 12.48 16.03 11.12C16.03 9.76 17.13 8.65 18.5 8.65C19.86 8.65 20.96 9.76 20.96 11.12C20.96 12.48 19.86 13.59 18.5 13.59Z" fill="#95E1D3" fill-opacity="1.000000" fill-rule="nonzero"/>
	</g>
</svg>
